<?xml version="1.0" encoding="utf-8"?>
<!-- Generator: Adobe Illustrator 18.0.0, SVG Export Plug-In . SVG Version: 6.00 Build 0)  -->
<!DOCTYPE svg PUBLIC "-//W3C//DTD SVG 1.1//EN" "http://www.w3.org/Graphics/SVG/1.1/DTD/svg11.dtd">
<svg version="1.1" id="图层_1" xmlns="http://www.w3.org/2000/svg" xmlns:xlink="http://www.w3.org/1999/xlink" x="0px" y="0px"
	 viewBox="0 0 2000 2000" enable-background="new 0 0 2000 2000" xml:space="preserve">
<path stroke="#000000" stroke-width="5" stroke-miterlimit="10" d="M316.6,764.8c4.7,0,12.2,26.1,22.4,78.4v4.1
	c-1.4,2.7-3.4,4.1-6.1,4.1c-5.4,0-9.8-12.2-13.2-36.6c-3.4-14.3-5.8-29.9-7.1-46.8C313.9,765.8,315.2,764.8,316.6,764.8z
	 M390.9,726.1h2c5.4,0,9.8,35.6,13.2,106.9c0,27.8-3.1,41.7-9.2,41.7c0,1.4-1.7,2-5.1,2c-13.6,0-24.1-12.9-31.6-38.7
	c10.8,10.9,20.7,18.7,29.5,23.4c1.4-3.4,2-16.6,2-39.7v-14.3c0-35.3-1-61.7-3.1-79.4C389.5,726.8,390.2,726.1,390.9,726.1z
	 M441.8,766.9c5.4,3.4,12.5,15.6,21.4,36.6c8.1,16.3,12.2,25.8,12.2,28.5c-2,4.1-4.8,5.8-8.1,5.1c-2.7-0.7-8.1-9.2-16.3-25.4
	c-5.4-12.2-10.5-26.1-15.3-41.7v-1C437,766.9,439.1,766.2,441.8,766.9z"/>
<path stroke="#000000" stroke-width="5" stroke-miterlimit="10" d="M581.2,759.7c0.7,0,2.7,4.4,6.1,13.2h1c10.8-0.7,19-1,24.4-1
	c6.8,0.7,10.2,3.4,10.2,8.1v3.1c0,6.8-9.2,18-27.5,33.6c1.4,10.2,2,19,2,26.5v2c4.7-1.4,12.2-2.7,22.4-4.1c0.7-19,2-28.5,4.1-28.5
	c4.1,0,6.8,11.9,8.1,35.6c0,18.3-1.7,27.5-5.1,27.5c0,0.7-1.4,1-4.1,1c-3.4,0-5.1-3.7-5.1-11.2v-9.2c-16.3,2-24.4,4.4-24.4,7.1
	c-0.7,0-1.7,0-3.1,0c-2-0.7-3.1-1.4-3.1-2c-12.9,2.7-22.1,4.1-27.5,4.1h-8.1c-2-1.4-3.1-2.7-3.1-4.1c0-2.7,10.8-6.4,32.6-11.2
	c2.7-1.4,4.1-2.4,4.1-3.1v-21.4l-1-1h-1h-4.1c-0.7,0-1.7-1-3.1-3.1v-2c0-2.7,2.7-6.8,8.1-12.2v-1c0-14.9-1-22.4-3.1-22.4l-18.3-2v1
	c6.8,17,10.2,30.2,10.2,39.7c0,3.4-1.4,5.8-4.1,7.1h-2c-4.1,0-8.8-18.3-14.2-55l2-3.1h1c2.7,2,4.1,3.7,4.1,5.1l21.4-4.1
	c-1.4-5.4-2-9.2-2-11.2C579.2,760.4,579.9,759.7,581.2,759.7z M590.4,785.2l3.1,14.2h1c8.1-8.1,12.5-13.2,13.2-15.3h-16.3
	L590.4,785.2z M666.7,735.3h9.2c12.9,0,20.4,1.7,22.4,5.1v3.1c0,0.7-0.7,1-2,1h-11.2c2,27.1,3.7,40.7,5.1,40.7l24.4-4.1
	c-3.4-14.9-5.8-26.5-7.1-34.6v-1c0-0.7,0.7-1.4,2-2h3.1c1.4,0,5.8,11.9,13.2,35.6c8.1-1.4,14.3-2,18.3-2c2,0.7,3.7,1.7,5.1,3.1v2
	c0,3.4-4.4,6.1-13.2,8.1c-4.1,0-6.1,0.7-6.1,2c2.7,10.2,4.7,18.3,6.1,24.4c12.9-15.6,20-23.4,21.4-23.4h1c0,4.1-6.5,17-19.3,38.7
	c2.7,15.6,5.1,27.1,7.1,34.6l8.1-28.5h1c2.7,15.6,4.1,25.4,4.1,29.5c-1.4,18.3-5.1,27.5-11.2,27.5h-2c-7.5,0-13.6-15.6-18.3-46.8h-1
	c-9.5,12.2-16,18.3-19.3,18.3c-2-0.7-3.4-2-4.1-4.1v-2c0-3.4,7.1-13.2,21.4-29.5l-7.1-36.6c-3.4,0-12.2,1.4-26.5,4.1
	c0,8.8,0,14.2,0,16.3h1c1.4,0,4.1-0.3,8.1-1c-5.4,5.4-8.1,9.2-8.1,11.2v6.1c0,37.3-2.4,56-7.1,56c-2,1.4-4.4,2-7.1,2
	c-8.8-2-19.7-9.5-32.6-22.4c-3.4-6.1-5.1-9.8-5.1-11.2c8.1,0.7,19.7,6.1,34.6,16.3c0,0.7,0.3,1,1,1h1c0.7-12.9,1-26.5,1-40.7v-1
	c-19.7,8.8-32.2,13.2-37.7,13.2h-3.1c-0.7,0-1.7-1-3.1-3.1v-1c1.4-2,15.9-8.8,43.8-20.4v-18.3c-16.3,2-28.8,3.1-37.7,3.1
	c-8.8-0.7-13.2-2-13.2-4.1c0-2,9.5-4.4,28.5-7.1c12.9-2.7,20.4-4.4,22.4-5.1v-8.1v-1c0-17.6,1-29.2,3.1-34.6
	c-17.7-1.4-26.5-3.4-26.5-6.1C654.5,736.3,658.6,735.3,666.7,735.3z M739,708.8c6.8,4.1,12.5,13.9,17.3,29.5v8.1l-3.1,3.1h-4.1
	c-3.4,0-7.8-13.2-13.2-39.7L739,708.8z"/>
<path stroke="#000000" stroke-width="5" stroke-miterlimit="10" d="M915.1,715c14.3,0,21.4,3.7,21.4,11.2v1
	c0,5.4-9.8,19.3-29.5,41.7v2c10.2,0,21.4,6.1,33.6,18.3c0,0.7,0.7,2.4,2,5.1c29.9-6.8,47.5-10.2,52.9-10.2c4.7,0.7,7.1,2.7,7.1,6.1
	c0,5.4-12.6,9.5-37.7,12.2c0,0.7-6.1,2-18.3,4.1v4.1c0,13.6-6.8,37.3-20.4,71.2c-4.8,4.8-9.2,7.1-13.2,7.1c-9.5,0-19-9.5-28.5-28.5
	c-3.4-7.5-5.1-12.2-5.1-14.2l2-1c0.7,0,5.1,4.8,13.2,14.3c10.2,7.5,15.9,11.2,17.3,11.2c12.9-29.2,19.7-49.5,20.4-61.1
	c-52.9,8.8-85.5,13.2-97.7,13.2h-2c-3.4,0-5.1-1.4-5.1-4.1c0-2.7,9.8-5.4,29.5-8.1c14.9-4.1,38.7-8.8,71.3-14.3
	c-4.1-6.8-13.9-12.2-29.5-16.3c-3.4-1.4-5.1-3.7-5.1-7.1v-1c0-5.4,9.8-18.7,29.5-39.7c1.4-2,2-4.1,2-6.1c-2.7,0-4.8,0-6.1,0
	c-6.1,0-19.7,0-40.7,0c-8.8-0.7-13.2-2.4-13.2-5.1c1.4-2,2.4-3.1,3.1-3.1L915.1,715z"/>
<path stroke="#000000" stroke-width="5" stroke-miterlimit="10" d="M1118.7,707.8h3.1c1.4,0,4.1,10.2,8.1,30.5
	c1.4,4.8,3.1,8.1,5.1,10.2c4.1,0,9.5-2.7,16.3-8.1v-1c0-1.4-0.3-7.8-1-19.3c0-1.4,1-2.7,3.1-4.1c3.4,0,5.8,6.1,7.1,18.3h1
	c17.6-12.2,28.5-18.3,32.6-18.3l2,3.1c-7.5,10.2-18.7,20.4-33.6,30.5c2,12.2,3.1,20.4,3.1,24.4h1c25.1-11.5,38.3-17.3,39.7-17.3h2
	c2,0.7,3.4,2.4,4.1,5.1c0,4.1-14.9,12.9-44.8,26.5v1c1.4,8.8,2,14.6,2,17.3c19.7-7.5,31.2-11.2,34.6-11.2c5.4,1.4,8.1,6.5,8.1,15.3
	v5.1c-1.4,36.6-5.1,55-11.2,55h-2c-4.1-2-6.1-5.1-6.1-9.2c4.7-27.8,7.1-45.8,7.1-53.9h-1c-10.2,3.4-20,7.1-29.5,11.2
	c0,1.4,0.3,2.4,1,3.1c0.7,17.7,1,31.2,1,40.7v8.1c0,14.9-2.4,22.4-7.1,22.4h-2c-2.7-1.4-4.1-4.1-4.1-8.1v-59c0-0.7-0.7-1-2-1
	c-16.3,10.2-25.1,16.3-26.5,18.3c4.7,14.2,7.8,24.1,9.2,29.5c0,2-1.4,4.1-4.1,6.1h-3.1c-4.8,0-8.1-8.1-10.2-24.4
	c-0.7,0-3.7-12.2-9.2-36.6c-13.6,7.5-22.4,11.2-26.5,11.2c-3.4-0.7-5.1-2-5.1-4.1c0-2.7,21.7-16.3,65.1-40.7
	c6.1-2.7,9.2-4.4,9.2-5.1c-1.4-12.2-2-19.7-2-22.4c-6.8,4.1-12.9,6.1-18.3,6.1c-12.2,0-18.3-16.6-18.3-49.9v-1
	C1116.6,709.2,1117.3,707.8,1118.7,707.8z M1119.7,813.7l6.1,18.3c10.8-7.5,21.4-14.2,31.6-20.4v-1c0-10.8-0.4-16.3-1-16.3
	C1135.3,804.5,1123.1,811,1119.7,813.7z M1225.5,749.6h2c3.4,0,5.4,12.2,6.1,36.6c0.7,0,1,4.4,1,13.2v3.1c0,20.4-1.7,30.5-5.1,30.5
	h-4.1c-1.4,0-2.7-2.4-4.1-7.1c0.7-33.9,1-55.6,1-65.1C1222.5,753.3,1223.5,749.6,1225.5,749.6z M1260.2,707.8h2
	c4.7,4.1,7.1,38,7.1,101.8c0,42.7-8.5,70.6-25.4,83.5c-2.7,1.4-4.8,2-6.1,2h-3.1c-5.4-0.7-8.1-3.1-8.1-7.1c0-1.4,1-2,3.1-2l3.1,1
	c15.6-13.6,23.4-50.9,23.4-112c1.4-22.4,2-40.4,2-53.9V715c0-1.4-0.4-2.4-1-3.1C1257.8,709.9,1258.8,708.5,1260.2,707.8z"/>
<path stroke="#000000" stroke-width="5" stroke-miterlimit="10" d="M1378.2,781.1h1c1.4,0,5.4,12.2,12.2,36.6
	c1.4,9.5,2.4,19.7,3.1,30.5c-0.7,2.7-1,5.4-1,8.1v6.1v1c0,2,37.3,4.1,112,6.1c8.8,2,13.2,4.8,13.2,8.1c0,4.1-3.4,6.1-10.2,6.1
	c-83.5-1.4-128.2-4.7-134.4-10.2c-10.9-3.4-18-7.8-21.4-13.2v-3.1c0-0.7,0.3-1,1-1h1c15.6,4.1,25.1,6.1,28.5,6.1
	c-2-28.5-4.8-54.6-8.1-78.4C1375.8,782.1,1376.9,781.1,1378.2,781.1z M1372.1,747.5h3.1c12.2,4.1,18.3,9.8,18.3,17.3v5.1h-2
	c0-4.1-7.1-9.2-21.4-15.3v-4.1C1370.7,748.5,1371.4,747.5,1372.1,747.5z M1458.6,719h1c2,0,3.7,7.5,5.1,22.4
	c14.9-4.1,23.4-6.1,25.4-6.1c1.4,0,2.4,1,3.1,3.1c0,4.1-8.8,9.2-26.5,15.3v7.1c0,3.4,0.3,6.5,1,9.2l-1,15.3
	c20.4-3.4,34.3-5.1,41.7-5.1c2.7,0.7,4.1,2.7,4.1,6.1c0,6.8-9.5,10.2-28.5,10.2l-42.7,6.1c0.7,4.1,1.4,7.8,2,11.2
	c16.3-0.7,31.2-1,44.8-1c11.5,0,17.3,3.4,17.3,10.2c0,10.2-17,23.4-50.9,39.7h-1c-2-1.4-3.7-2-5.1-2c0,0.7-1,1.7-3.1,3.1h-2
	c-5.4,0-8.8-15.3-10.2-45.8l2-13.2c-6.8,0-11.9,0-15.3,0h-8.1c-10.9,0-17-1.7-18.3-5.1v-3.1c0-1.4,9.8-3.1,29.5-5.1
	c19-2.7,30.2-4.4,33.6-5.1c-2-2.7-3.1-11.9-3.1-27.5v-1c-2.7,1.4-7.8,2.4-15.3,3.1c-11.5-1.4-17.3-6.1-17.3-14.3v-1
	c1.4-16.3,3.1-24.4,5.1-24.4c1.4,0,2.7,7.8,4.1,23.4c2,2.7,4.4,4.1,7.1,4.1c10.8-1.4,16.3-3.1,16.3-5.1
	C1454.2,727.2,1455.9,719,1458.6,719z M1445.4,822.8c1.4,7.5,2.4,17,3.1,28.5l38.7-24.4l1-2l-6.1-1
	C1474.6,823.9,1462.4,823.5,1445.4,822.8z"/>
<path stroke="#000000" stroke-width="5" stroke-miterlimit="10" d="M1673.4,700.7c23.1,11.5,35.3,18.7,36.6,21.4
	c15.6-2.7,26.8-3.7,33.6-3.1c2.7,0,4.4,1,5.1,3.1v3.1c0,2-6.1,4.1-18.3,6.1c-0.7,5.4-7.5,21-20.4,46.8c0-0.7-0.7,0.3-2,3.1
	c29.9-5.4,48.5-7.8,56-7.1h5.1c4.7,0,7.1,2,7.1,6.1c0,1.4-0.4,2.7-1,4.1c0,23.8-0.3,40-1,48.9c-2,33.3-3.1,52.3-3.1,57v3.1
	c0,2.7-1.4,5.1-4.1,7.1h-2c-4.8-0.7-7.1-6.4-7.1-17.3c2.7-29.9,4.4-50.5,5.1-62.1l1-36.6c-2-0.7-25.1,2.4-69.2,9.2c-2,0-4.1,0-6.1,0
	c-5.4,40.7-11.2,63.1-17.3,67.2h-2c-2-1.4-3.1-3.4-3.1-6.1c0-4.1,4.7-24.1,14.3-60.1h-1c-7.5,1.4-14.6,1.7-21.4,1h-2
	c4.1,21,7.1,55.3,9.2,102.8c-0.7,2.7-1.7,4.4-3.1,5.1l-4.1-1c-4.1,0-6.8-24.4-8.1-73.3c-0.7-0.7-1.7-14.6-3.1-41.7l3.1-2h1l3.1,2
	h3.1c11.5,0,17.3-1,17.3-3.1l-5.1-41.7c-25.1,4.8-41.7,6.8-49.9,6.1l-2-3.1v-1c0-2,11.5-4.7,34.6-8.1c0.7-0.7,14.9-4.1,42.8-10.2
	c-17-10.2-25.1-18-24.4-23.4L1673.4,700.7z M1677.5,740.4c2.7,14.2,5.1,28.8,7.1,43.8c8.8,0,13.2-3.1,13.2-9.2
	c4.7-7.5,12.2-21.7,22.4-42.7h-1C1717.8,732.3,1703.9,735,1677.5,740.4z M1691.7,826.9c2,0,3.7,1,5.1,3.1c14.3-0.7,22.4-1,24.4-1
	c15.6,1.4,23.1,5.1,22.4,11.2v4.1c-2,10.2-13.6,26.5-34.6,48.9l-5.1,2l-1-1c-1.4,0-2.7-2.4-4.1-7.1c-2-2.7-5.1-21.4-9.2-56v-2
	C1689.7,828.3,1690.4,827.6,1691.7,826.9z M1699.9,838.1v1c3.4,8.8,6.1,21.4,8.1,37.7c17-19,25.4-30.5,25.4-34.6c0-1.4-0.3-2-1-2
	c-12.2-0.7-21.7-1.4-28.5-2H1699.9z M1706,795.4c33.2,8.1,49.9,15.3,49.9,21.4c-1.4,2.7-3.4,4.1-6.1,4.1
	c-31.2-10.8-46.8-18-46.8-21.4c-0.7,0-1-0.7-1-2C1703.9,796,1705.3,795.4,1706,795.4z"/>
<g>
	<path fill-rule="evenodd" clip-rule="evenodd" fill="#040000" d="M754.3,1072.4c-6.1-10.8-7.6-17.5-3.4-31.9
		c3.4-11.6,1.9-6.6,7.4-14.4c5.7-8.1,1.6-6.7,9.5-10.6c11.6,6.4-2.5,5.7,14.6,13.7C779.3,1047.7,773.1,1069.9,754.3,1072.4
		L754.3,1072.4z M683.6,1071.5c6.3-11.9,3.6-42,20.2-71.9c5.1-9.2,5.8-8.4,9.5-20.3l2.6,8.8c0.1,1.1,0.1,7.2,0.1,8.7
		c0,46.5-2.7,35.7,6.8,79.3c4.4,20.1,3.7,21.7,10.4,25.2c11-7.5-0.1-12.9,0-35c4.6,6.6,5.7,12.1,13,19.6
		c31.2,0.7,21.9-10.6,38.5-17.6l6.6,15.3l20.9-1c-2.4-11.8,0.3-4.7-8.9-11c-14.6-10.1-4.2-31.1-6.1-41.3c-1.9-9.9-3.3-5.9-7.6-9.8
		c-6.7-6-8.6-27.1-28.6-17.9c-5.4,2.5-21.1,25.5-23.9,38.9c-0.7,3.7-0.6,6.1-1.3,9.3c-0.1,0.7-0.3,1.3-0.4,2l-2.1,5.5
		c-0.4-0.6-0.7-1.3-0.8-1.8l-3.4-22.8c-0.7-24.6,3.4-60.6-7-74.9c-20.2-1-28.5,39.5-40.6,59c-6-11.4-3.3-60.4-33-51.7
		c-3.4,13.8-1.2,46.2-1.2,63.3c0,11.5,0.3,20.3-1.6,31.2l-0.9,22.6c0.9,5.3,0.1,2.5,1.6,5.2c17.6,6.3,13-16.7,13.2-30.8l1.4-72.5
		c-0.4,9,7.5,32.7,8.7,44.5C671.3,1044.1,672.3,1068.1,683.6,1071.5z"/>
	<path fill-rule="evenodd" clip-rule="evenodd" fill="#040000" d="M427.6,1061c-0.9-10.9,0.3-36.8,2.2-46.5
		c2.7-13.5,24.1-13,37.4-10.6C478.2,1034,437.1,1060.8,427.6,1061L427.6,1061z M431.7,992c1.3-16.8-6-56.6,22-44.1
		c12.8,5.7,8.9-1,11,8.2c1.3,5.8-6.5,14.4-10.1,18.8C449,981.7,441.6,987.7,431.7,992L431.7,992z M461.6,985.9
		c6.5-14.2,34.1-28.4,5.6-47c-15-9.8-44.1-9.1-47.4,12.5l-2.5,71.3c-0.6,17.7-11.5,55.5,5.1,65.9c8.6-4.2,3.3-1.3,6.6-7.9
		c5.3-10.7-0.9-1.2,18.9-15.5c5.4-3.9,16.3-7.4,25.2-22.1C501.5,995.6,470.6,999.2,461.6,985.9z"/>
	<path fill-rule="evenodd" clip-rule="evenodd" fill="#040000" d="M613.7,997.8c4.6,13.5-1.6,20.2-7.4,27.4
		c-2.9,3.6-13.2,16.4-19.8,10.3C576.8,1026.7,599.1,996.4,613.7,997.8L613.7,997.8z M526.8,1146.5c0.2,9.9,21.9,25.2,40.2,26
		c21.4,1,39.3-1,53-12.7c12-10.2,13.4-34.3,14.3-50.7c1.4-26.6-5.1-63.3-3-93.5c1-15,0.9-17.3-6-25.3c-14.6-17.2-32.5-1.8-40.8,10.9
		c-39.5,60.9,14.5,47.9,15,47.6c7.4-3.9,9.9-12.4,18.6-12.6c1.2,59.2,23.9,131.7-46.1,124.3C534,1156.5,542.8,1144.7,526.8,1146.5z"
		/>
	<path fill-rule="evenodd" clip-rule="evenodd" fill="#040000" d="M892.8,1025.2c6.9-9.3,22.8-26.4,33.5-12.9
		C921.6,1027,898.9,1029,892.8,1025.2L892.8,1025.2z M937.4,1022.9c-0.5,13.3-2.4,28.2-4.1,41.1c-3.4,26.4,11.9,23.7,14.1,10
		c2.4-15.8-0.9-24.8,9.1-36.2c5.5-6.2,13-17.3,21-21.9c13.6,4.4,2.1,7.7,18.9,7.1c1-13.4-11.5-24.2-24-18.6
		c-5.3,2.4-18.8,17.4-21.6,20.8c0,0-15.2-35.4-36.2-30.7c-25.9,5.8-45.1,35.5-43.3,62.9c2.4,36.3,53.7,35.3,59.6,11.2
		c-13.3,0.7-26.9,9.3-38.2,1.1c-6.4-4.6-13.6-19.6-6.2-29.1c4-3.5,5.2-1.1,14-0.6C921.7,1041.4,927,1028.8,937.4,1022.9z"/>
	<path fill-rule="evenodd" clip-rule="evenodd" fill="#040000" d="M1195.5,1030.9c-1.6-19.4-4.6-44.6,8.5-55.8
		c0.2-0.2,8-4.6,8.1-4.6c6.4-2.1,14.3,0.4,18.6,3.6C1251.7,989.7,1203.3,1027.6,1195.5,1030.9L1195.5,1030.9z M1174.4,1116.8
		c19.3,2,15-25.1,16.6-42.6c3.2-34.4-2.7-20.2,20.7-39.3l31.6-28.9c23.1-30.3-17.3-67-47.7-41.2c-16.4,13.9-11.5,23.4-12.9,42.8
		c-1.4,20-3,37.7-3.5,58.3C1178.6,1086.2,1173.3,1098.5,1174.4,1116.8z"/>
	<path fill-rule="evenodd" clip-rule="evenodd" fill="#040000" d="M833.2,1032.7c-1.5-13.1,3.3-19.6,14.5-21.1
		C847.8,1023.6,844.3,1032.6,833.2,1032.7L833.2,1032.7z M833.1,1002.2c-1.5-9.3-1.7-29-1.4-37.1c0.4-14.1,2.6-24.3-10.5-26.7
		c-3.8,11.7-1.7,57.1-1.5,73.5c0.2,16.7-5.3,17.3-5.7,51.8c0,3.3,0.1,14.1,2.4,16.2c17.5,8.5,10.6-13.3,15.3-24.6
		c3.5,7.4,6.7,24.1,14.6,31.1c0.4,0.3,0.9,0.7,1.3,0.9c6.4,4.6,16.6,6.4,24.4,2.2c-3.5-13.8-10.4-3.5-19.2-16
		c-4.9-7-8-17.9-8.3-27.2c7.8-12.4,22.8-24.5,10.3-45.9C845.2,997.1,841,998.2,833.1,1002.2z"/>
	<path fill-rule="evenodd" clip-rule="evenodd" fill="#040000" d="M1420.9,1001.9c-15.5-3-41.9,16.7-42.2,17.1
		c-8.9,10.5-1.7,14,9.4,9.4c21.8-9.1,4.8-6.3,18.5-11l4.1,12.7c3.4,21.1,2,18.3,2.6,37.7c0.9,24.4,11.4,82.2-28.3,80.1
		c-7.9-0.4-15.4-3.5-20.1-7.9c-9.7-9-1.5-10.1-14.9-13.9c-3.1,35.5,45.7,41.9,64,27.3C1435.8,1136,1427,1022.6,1420.9,1001.9z"/>
	<path fill-rule="evenodd" clip-rule="evenodd" fill="#040000" d="M1641.6,1016.1c2.3-10.4,3.8-18.2,5.9-29.4
		c0.9-4.7,7.5-23-4.6-19.4c-7.6,2.2-11.1,41.1-14.7,50.3c-8.3,9.6-34.8-2.7-30.9,21.7c7,0.4,17.7-3,25.7-4.1
		c-1.9,22-10.3,61,12.7,65.2c18,3.3,21.6-7.6,27.8-13.1c6.9-6.1,20.8-24.1,11.9-24.2l-2.5-0.1c-0.3,0.1-0.9,0.2-1.2,0.3
		c-2,0.7-2.6,1.6-4.7,3.5c-12.6,11.6-14.5,20.7-29,19.8c-8.3-13.8-6-37.6,0-53.4c10.1-13.1,49.4,0.5,51.4-19.6
		C1673.5,1011.6,1657.9,1014.9,1641.6,1016.1z"/>
	<path fill-rule="evenodd" clip-rule="evenodd" fill="#040000" d="M1466,1047.4c0.6-14.8,9.2-27.1,25.1-29.2
		c7.1,8.4,11.8,12,0.7,20.7C1484.9,1044.2,1476,1046.7,1466,1047.4L1466,1047.4z M1459.3,1062.4c14.4-1.9,19.8,2.8,33.3-7.7
		c8-6.2,18.3-12.2,19.5-23.8c1.3-12.5-9-23.1-19.9-25.4c-17.8-3.6-32.4,16.4-38,27.9c-2.5,5.2-2.6,10.8-4.8,17
		c-8.5,24-11.1,49.4,24.6,52.2c9.5,0.7,25.9-6.2,28.2-15.2c-10.7-5.1-19.3,5.9-33,2.2C1456.5,1086.1,1456.2,1075.7,1459.3,1062.4z"
		/>
	<path fill-rule="evenodd" clip-rule="evenodd" fill="#040000" d="M564.3,1091.2c-0.1-9.5-17.4-23.3-16.8-51.3
		c0.3-12.7,15.3-54.1-12-31.8c-1.9,20.5-1.3,17.9-8.5,35.2c-3.3,8.1-10.3,21.4-18.7,20.9c-6.7-24.5,16.5-68.4-9.7-64.7
		c-2,8.3-2.4,33.8-3.7,44.5c-1.8,14.3-5.8,23.4,4.5,33.5c19.5,3.8,23.4-9.7,35.4-16.9l1.5,3.7C542,1081.1,544.8,1092.9,564.3,1091.2
		z"/>
	<path fill-rule="evenodd" clip-rule="evenodd" fill="#040000" d="M1345.2,1044.6c3,25-18.1,65.2-30.1,37
		c-4.8-11.3-3.8-26.2,2.9-33.1C1327.5,1038.8,1333.3,1038.2,1345.2,1044.6L1345.2,1044.6z M1357,1068.6c7.3-20.7-0.3-44.3-23.7-42.1
		c-11.3,1.1-33,18.1-34.7,33.3c-2.3,20.3,6.6,42.1,26,43.4C1344.4,1104.7,1351.5,1084.1,1357,1068.6z"/>
	<path fill-rule="evenodd" clip-rule="evenodd" fill="#040000" d="M1582.9,1080.9c-7-3.2-18.8,6.8-33.2,5.3
		c-11.5-1.3-18.4-12.1-13.2-24.2l16.3-27.2c17.6-24.2,17.2-2.1,24.8-18.6c-14.1-23.8-39.5,17.6-44.8,24.8
		c-24.1,33.2-2.7,48.7,1.8,56.5c13.3,0.9,20.3,2.5,31.6-1.8C1573.5,1092.8,1582.1,1088.9,1582.9,1080.9z"/>
	<path fill-rule="evenodd" clip-rule="evenodd" fill="#040000" d="M1237.1,1105.8c24.9-2.7,12.3-19.3,17.5-40.9
		c2.3-9.6,12-26.2,20.3-33.1c17.1,2.6,13.3,10.2,25.7,10c2.7-16.3-23.4-41.7-49.4-2.6c-4.3-3.9-4.9-6-13.1-5.8
		c-2,12.1,3.2,21.7,1.7,36.6C1238.5,1083.3,1237.8,1091.4,1237.1,1105.8z"/>
	<path fill-rule="evenodd" clip-rule="evenodd" fill="#040000" d="M1036.1,1049.1c4.3,8.4-3.1,8.6,23.7,4.4
		c17.9-2.8,8.1,0.3,19.1-0.8c52.7-5.4,48.8-2.1,47.5-18.1c-5-0.9-41,2.5-49.9,3.4C1055.6,1040,1039.5,1039.5,1036.1,1049.1z"/>
</g>
<path fill-rule="evenodd" clip-rule="evenodd" fill="#040000" d="M1410,973.7c8.2-3.4,9.6-6.5,10-16c-5.5-3.8-5.2-5-14.6-4.8
	C1402.8,964.5,1403.5,966,1410,973.7z"/>
<g>
</g>
<g>
</g>
<g>
</g>
<g>
</g>
<g>
</g>
<g>
</g>
</svg>
